<svg width="114" height="46" viewBox="0 0 114 46" fill="none" xmlns="http://www.w3.org/2000/svg">
<path d="M0.0390625 36.6044H20.8558V44.701H28.3984V36.6044H33.9808V30.1058H28.3984V1.06461H18.5547L0.0390625 30.3189V36.6044ZM20.9411 30.1058H8.13565V29.7649L20.6001 10.0135H20.9411V30.1058Z" fill="current"/>
<path d="M56.9176 45.5319C67.4432 45.5532 73.7287 37.2436 73.7287 22.9254C73.7287 8.69245 67.4006 0.468018 56.9176 0.468018C46.4347 0.468018 40.1278 8.67114 40.1065 22.9254C40.1065 37.2223 46.392 45.5319 56.9176 45.5319ZM56.9176 38.8629C51.4844 38.8629 48.0753 33.4084 48.0966 22.9254C48.1179 12.5277 51.5057 7.05182 56.9176 7.05182C62.3509 7.05182 65.7386 12.5277 65.7599 22.9254C65.7599 33.4084 62.3722 38.8629 56.9176 38.8629Z" fill="current"/>
<path d="M80.0195 36.6044H100.836V44.701H108.379V36.6044H113.961V30.1058H108.379V1.06461H98.5352L80.0195 30.3189V36.6044ZM100.922 30.1058H88.1161V29.7649L100.581 10.0135H100.922V30.1058Z" fill="current"/>
</svg>
