<svg width="40" height="56" viewBox="0 0 40 56" fill="none" xmlns="http://www.w3.org/2000/svg">
<rect y="7" width="40" height="49" rx="4" fill="#EFEFEF"/>
<rect x="11" y="4" width="18" height="6" rx="2" fill="#CDCDCD"/>
<circle cx="20" cy="4" r="4" fill="#CDCDCD"/>
<circle cx="20" cy="4" r="2" fill="white"/>
<path fill-rule="evenodd" clip-rule="evenodd" d="M29.9548 22.393C30.5813 22.6116 31 23.2003 31 23.8619V33.5399C31 36.2448 30.0136 38.8269 28.2715 40.8273C27.3955 41.8347 26.2871 42.6192 25.11 43.2536L20.0086 46L14.8986 43.2522C13.72 42.6178 12.6103 41.8347 11.7328 40.8259C9.98931 38.8254 9 36.242 9 33.5342V23.8619C9 23.2003 9.41867 22.6116 10.0452 22.393L19.4824 19.0879C19.8179 18.9707 20.1835 18.9707 20.5176 19.0879L29.9548 22.393Z" fill="#CDCDCD"/>
<path d="M16.2729 32.1013L18.9857 34.8062L24.5746 29.2363" stroke="white" stroke-width="2" stroke-linecap="round" stroke-linejoin="round"/>
</svg>
