<svg width="82" height="52" viewBox="0 0 82 52" fill="none" xmlns="http://www.w3.org/2000/svg">
<rect width="82" height="52" rx="4" fill="#F8F8F8"/>
<path d="M20.28 21.076V31.948H21.528V21.076H20.28ZM15.756 21.88C14.148 21.88 12.972 23.368 12.972 25.696C12.972 28.048 14.148 29.524 15.756 29.524C17.376 29.524 18.552 28.048 18.552 25.696C18.552 23.368 17.376 21.88 15.756 21.88ZM15.756 22.996C16.704 22.996 17.364 24.016 17.364 25.696C17.364 27.4 16.704 28.42 15.756 28.42C14.82 28.42 14.16 27.4 14.16 25.696C14.16 24.016 14.82 22.996 15.756 22.996ZM24.2271 22.108V29.272H29.3151V22.108H24.2271ZM28.1031 23.092V28.276H25.4391V23.092H28.1031ZM31.3191 21.076V31.948H32.5671V21.076H31.3191ZM38.6861 23.188H41.0981V22.168H35.0261V23.188H37.4381V24.22C37.4381 26.08 36.3221 28.096 34.6421 28.876L35.3501 29.86C36.6221 29.248 37.5941 27.964 38.0741 26.452C38.5781 27.856 39.5501 29.032 40.8101 29.584L41.4941 28.612C39.8021 27.892 38.6861 26.02 38.6861 24.22V23.188ZM42.3581 21.088V31.924H43.6061V21.088H42.3581ZM49.7565 24.052C49.7565 23.152 50.4405 22.564 51.3885 22.564C52.3365 22.564 53.0325 23.152 53.0325 24.052C53.0325 24.964 52.3365 25.564 51.3885 25.564C50.4405 25.564 49.7565 24.964 49.7565 24.052ZM56.1645 24.544V26.824H57.4005V21.1H56.1645V23.524H54.1485C53.9085 22.336 52.8165 21.544 51.3885 21.544C49.7685 21.544 48.5685 22.576 48.5685 24.052C48.5685 25.552 49.7685 26.584 51.3885 26.584C52.8285 26.584 53.9205 25.768 54.1605 24.544H56.1645ZM52.3365 30.844H50.7885V29.584H52.3365V30.844ZM52.3365 27.448V28.672H50.7885V27.448H49.6365V31.792H53.4765V27.448H52.3365ZM56.6085 27.364H55.3845V28.228C55.3845 29.296 54.7725 30.424 53.4765 30.964L54.1005 31.9C55.0125 31.516 55.6245 30.82 55.9845 30.004C56.3205 30.832 56.9445 31.528 57.9045 31.9L58.5165 30.964C57.2085 30.484 56.6085 29.38 56.6085 28.228V27.364ZM64.3596 21.316C61.9956 21.316 60.4956 22.096 60.4956 23.392C60.4956 24.676 61.9956 25.468 64.3596 25.468C66.7236 25.468 68.2236 24.676 68.2236 23.392C68.2236 22.096 66.7236 21.316 64.3596 21.316ZM64.3596 22.276C65.9676 22.276 66.9396 22.672 66.9396 23.392C66.9396 24.1 65.9676 24.496 64.3596 24.496C62.7516 24.496 61.7676 24.1 61.7676 23.392C61.7676 22.672 62.7516 22.276 64.3596 22.276ZM60.6276 28.168V31.792H68.0676V28.168H60.6276ZM66.8556 29.152V30.808H61.8516V29.152H66.8556ZM59.4516 26.26V27.244H69.2556V26.26H59.4516Z" fill="#6E6E6E"/>
</svg>
