<svg width="24" height="24" viewBox="0 0 24 24" fill="none" xmlns="http://www.w3.org/2000/svg">
<path fill-rule="evenodd" clip-rule="evenodd" d="M11.2803 6.46967C11.5732 6.76256 11.5732 7.23744 11.2803 7.53033L6.81066 12L11.2803 16.4697C11.5732 16.7626 11.5732 17.2374 11.2803 17.5303C10.9874 17.8232 10.5126 17.8232 10.2197 17.5303L5.21967 12.5303C4.92678 12.2374 4.92678 11.7626 5.21967 11.4697L10.2197 6.46967C10.5126 6.17678 10.9874 6.17678 11.2803 6.46967Z" fill="current"/>
<path fill-rule="evenodd" clip-rule="evenodd" d="M18.2803 6.46967C18.5732 6.76256 18.5732 7.23744 18.2803 7.53033L13.8107 12L18.2803 16.4697C18.5732 16.7626 18.5732 17.2374 18.2803 17.5303C17.9874 17.8232 17.5126 17.8232 17.2197 17.5303L12.2197 12.5303C11.9268 12.2374 11.9268 11.7626 12.2197 11.4697L17.2197 6.46967C17.5126 6.17678 17.9874 6.17678 18.2803 6.46967Z" fill="current"/>
</svg>
