<svg width="24" height="24" viewBox="0 0 24 24" fill="none" xmlns="http://www.w3.org/2000/svg">
<g clip-path="url(#clip0_644_1673)">
<path d="M12 21C16.9706 21 21 16.9706 21 12C21 7.02944 16.9706 3 12 3C7.02944 3 3 7.02944 3 12C3 16.9706 7.02944 21 12 21Z" fill="#242426"/>
<path fill-rule="evenodd" clip-rule="evenodd" d="M12 6.5C12.5523 6.5 13 6.94772 13 7.5V12.75C13 13.3023 12.5523 13.75 12 13.75C11.4477 13.75 11 13.3023 11 12.75V7.5C11 6.94772 11.4477 6.5 12 6.5Z" fill="white"/>
<path d="M12 17.25C12.6213 17.25 13.125 16.7463 13.125 16.125C13.125 15.5037 12.6213 15 12 15C11.3787 15 10.875 15.5037 10.875 16.125C10.875 16.7463 11.3787 17.25 12 17.25Z" fill="white"/>
</g>
<defs>
<clipPath id="clip0_644_1673">
<rect width="24" height="24" fill="white"/>
</clipPath>
</defs>
</svg>
