<svg width="24" height="24" viewBox="0 0 24 24" fill="none" xmlns="http://www.w3.org/2000/svg">
<path fill-rule="evenodd" clip-rule="evenodd" d="M7.86902 9.88864C7.25072 9.73064 6.60589 9.70595 5.97732 9.81622C5.34875 9.92649 4.75083 10.1692 4.22323 10.5282C3.69564 10.8872 3.25044 11.3544 2.91718 11.8986C2.58393 12.4429 2.37025 13.0518 2.29032 13.6849C2.21039 14.3181 2.26604 14.961 2.45358 15.5709C2.64111 16.1809 2.95625 16.7441 3.37806 17.2229C3.79988 17.7018 4.31872 18.0855 4.90016 18.3485C5.48161 18.6116 6.11234 18.7479 6.75051 18.7485H8.99978C9.41399 18.7485 9.74978 19.0843 9.74978 19.4985C9.74978 19.9127 9.41399 20.2485 8.99978 20.2485H6.74978C5.89889 20.2477 5.05718 20.0659 4.28192 19.7152C3.50667 19.3645 2.81487 18.8529 2.25245 18.2144C1.69004 17.5759 1.26986 16.8251 1.01981 16.0117C0.769758 15.1984 0.695558 14.3412 0.802132 13.497C0.908706 12.6528 1.19362 11.841 1.63795 11.1153C2.08229 10.3897 2.67589 9.76682 3.37935 9.28812C4.08281 8.80941 4.88004 8.48581 5.71813 8.33879C6.55622 8.19176 7.416 8.22467 8.2404 8.43534C8.64172 8.53789 8.88391 8.94636 8.78136 9.34768C8.6788 9.749 8.27034 9.99119 7.86902 9.88864Z" fill="#242426"/>
<path fill-rule="evenodd" clip-rule="evenodd" d="M17.1347 5.59595C16.1201 5.25772 15.0396 5.16542 13.9823 5.32667C12.925 5.48792 11.9212 5.89809 11.0535 6.52339C10.1859 7.14869 9.47921 7.97121 8.99178 8.92319C8.50435 9.87517 8.2501 10.9293 8.25 11.9988C8.24996 12.4131 7.91414 12.7488 7.49993 12.7488C7.08571 12.7487 6.74996 12.4129 6.75 11.9987C6.75013 10.6915 7.06087 9.40309 7.65662 8.23956C8.25236 7.07604 9.11607 6.07073 10.1765 5.30647C11.237 4.54222 12.4639 4.04089 13.7562 3.84382C15.0484 3.64674 16.369 3.75954 17.6091 4.17294C18.8492 4.58633 19.9733 5.28848 20.8888 6.22153C21.8043 7.15458 22.4849 8.29181 22.8747 9.53953C23.2645 10.7872 23.3522 12.1097 23.1306 13.398C22.909 14.6862 22.3845 15.9034 21.6002 16.9492C21.3517 17.2806 20.8816 17.3477 20.5503 17.0992C20.2189 16.8507 20.1517 16.3806 20.4002 16.0492C21.0419 15.1936 21.471 14.1977 21.6523 13.1437C21.8336 12.0897 21.7618 11.0077 21.4429 9.9868C21.124 8.96594 20.5671 8.03548 19.8181 7.27207C19.069 6.50867 18.1493 5.93418 17.1347 5.59595Z" fill="#242426"/>
<path fill-rule="evenodd" clip-rule="evenodd" d="M14.2503 11.2485C14.4492 11.2485 14.64 11.3276 14.7807 11.4682L17.9626 14.6503C18.2555 14.9432 18.2555 15.418 17.9626 15.7109C17.6697 16.0038 17.1948 16.0038 16.902 15.7109L14.2503 13.0592L11.5987 15.7109C11.3058 16.0038 10.8309 16.0038 10.538 15.7109C10.2451 15.418 10.2451 14.9432 10.538 14.6503L13.72 11.4682C13.8606 11.3276 14.0514 11.2485 14.2503 11.2485Z" fill="#242426"/>
<path fill-rule="evenodd" clip-rule="evenodd" d="M14.25 11.2485C14.6642 11.2485 15 11.5843 15 11.9985V19.4985C15 19.9127 14.6642 20.2485 14.25 20.2485C13.8358 20.2485 13.5 19.9127 13.5 19.4985V11.9985C13.5 11.5843 13.8358 11.2485 14.25 11.2485Z" fill="#242426"/>
</svg>
