<svg width="16" height="9" viewBox="0 0 16 9" fill="none" xmlns="http://www.w3.org/2000/svg">
<path fill-rule="evenodd" clip-rule="evenodd" d="M0.782486 0.545589C1.07538 0.252696 1.55025 0.252696 1.84315 0.545589L8.56066 7.2631C8.85355 7.556 8.85355 8.03087 8.56066 8.32376C8.26777 8.61666 7.79289 8.61666 7.5 8.32376L0.782486 1.60625C0.489592 1.31336 0.489592 0.838482 0.782486 0.545589Z" fill="current"/>
<path fill-rule="evenodd" clip-rule="evenodd" d="M7.5 8.32379C7.20711 8.03089 7.20711 7.55602 7.5 7.26313L14.248 0.545556C14.5409 0.252663 15.0158 0.252663 15.3087 0.545556C15.6016 0.838449 15.6016 1.31332 15.3087 1.60622L8.56066 8.32379C8.26777 8.61668 7.79289 8.61668 7.5 8.32379Z" fill="current"/>
</svg>
