<svg width="24" height="24" viewBox="0 0 24 24" fill="none" xmlns="http://www.w3.org/2000/svg">
<g clip-path="url(#clip0_2793_78632)">
<path d="M9 4.5C9 4.22386 9.22386 4 9.5 4H14.5C14.7761 4 15 4.22386 15 4.5V10.5C15 10.7761 14.7761 11 14.5 11H9.5C9.22386 11 9 10.7761 9 10.5V4.5Z" fill="#242426"/>
<path d="M11.6464 15.6464C11.8417 15.8417 12.1583 15.8417 12.3536 15.6464L17.1464 10.8536C17.4614 10.5386 17.2383 10 16.7929 10H7.20711C6.76165 10 6.53857 10.5386 6.85355 10.8536L11.6464 15.6464Z" fill="#242426"/>
<path fill-rule="evenodd" clip-rule="evenodd" d="M4.25 19C4.25 18.5858 4.58579 18.25 5 18.25H19C19.4142 18.25 19.75 18.5858 19.75 19C19.75 19.4142 19.4142 19.75 19 19.75H5C4.58579 19.75 4.25 19.4142 4.25 19Z" fill="#242426"/>
</g>
<defs>
<clipPath id="clip0_2793_78632">
<rect width="24" height="24" fill="white"/>
</clipPath>
</defs>
</svg>
