<svg width="24" height="24" viewBox="0 0 24 24" fill="none" xmlns="http://www.w3.org/2000/svg">
<g clip-path="url(#clip0_3654_167)">
<path fill-rule="evenodd" clip-rule="evenodd" d="M17.5298 12.5302C17.8227 12.2373 17.8227 11.7624 17.5298 11.4695L13.5298 7.46955C13.2369 7.17665 12.7621 7.17665 12.4692 7.46955C12.1763 7.76244 12.1763 8.23731 12.4692 8.53021L15.1889 11.2499L6.99951 11.2499C6.5853 11.2499 6.24951 11.5857 6.24951 11.9999C6.24951 12.4141 6.5853 12.7499 6.99951 12.7499L15.1889 12.7499L12.4692 15.4695C12.1763 15.7624 12.1763 16.2373 12.4692 16.5302C12.7621 16.8231 13.2369 16.8231 13.5298 16.5302L17.5298 12.5302Z" fill="#242426"/>
</g>
<defs>
<clipPath id="clip0_3654_167">
<rect width="24" height="24" fill="white"/>
</clipPath>
</defs>
</svg>
