<svg width="24" height="24" viewBox="0 0 24 24" fill="none" xmlns="http://www.w3.org/2000/svg">
<rect x="14" y="5" width="8" height="14" rx="1" fill="#62CC70"/>
<path d="M3 6.73459C3 5.90757 3 5.49406 3.24455 5.21209C3.48909 4.93013 3.89845 4.87165 4.71716 4.75469L14.7172 3.32612C15.7793 3.17438 16.3104 3.09851 16.6552 3.39756C17 3.6966 17 4.23307 17 5.30602V18.694C17 19.7669 17 20.3034 16.6552 20.6024C16.3104 20.9015 15.7793 20.8256 14.7172 20.6739L4.71716 19.2453C3.89845 19.1283 3.48909 19.0699 3.24455 18.7879C3 18.5059 3 18.0924 3 17.2654V6.73459Z" fill="#00A237"/>
<path d="M11.1467 14.6929L9.93869 12.8129L8.84269 14.6929H7.57869L9.33869 11.8769L7.55469 9.10889H8.84269L10.0507 10.9809L11.1387 9.10889H12.4027L10.6507 11.9169L12.4347 14.6929H11.1467Z" fill="white"/>
</svg>
