<svg width="24" height="24" viewBox="0 0 24 24" fill="none" xmlns="http://www.w3.org/2000/svg">
<path fill-rule="evenodd" clip-rule="evenodd" d="M14 2.25C14.4142 2.25 14.75 2.58579 14.75 3V7C14.75 7.0663 14.7763 7.12989 14.8232 7.17678C14.8701 7.22366 14.9337 7.25 15 7.25H19C19.4142 7.25 19.75 7.58579 19.75 8C19.75 8.41421 19.4142 8.75 19 8.75H15C14.5359 8.75 14.0908 8.56563 13.7626 8.23744C13.4344 7.90925 13.25 7.46413 13.25 7V3C13.25 2.58579 13.5858 2.25 14 2.25Z" fill="#242426"/>
<path fill-rule="evenodd" clip-rule="evenodd" d="M7 3.75C6.66848 3.75 6.35054 3.8817 6.11612 4.11612C5.8817 4.35054 5.75 4.66848 5.75 5V19C5.75 19.3315 5.8817 19.6495 6.11612 19.8839C6.35054 20.1183 6.66848 20.25 7 20.25H17C17.3315 20.25 17.6495 20.1183 17.8839 19.8839C18.1183 19.6495 18.25 19.3315 18.25 19V8.31066L13.6893 3.75H7ZM5.05546 3.05546C5.57118 2.53973 6.27065 2.25 7 2.25H14C14.1989 2.25 14.3897 2.32902 14.5303 2.46967L19.5303 7.46967C19.671 7.61032 19.75 7.80109 19.75 8V19C19.75 19.7293 19.4603 20.4288 18.9445 20.9445C18.4288 21.4603 17.7293 21.75 17 21.75H7C6.27065 21.75 5.57118 21.4603 5.05546 20.9445C4.53973 20.4288 4.25 19.7293 4.25 19V5C4.25 4.27065 4.53973 3.57118 5.05546 3.05546Z" fill="#242426"/>
<path fill-rule="evenodd" clip-rule="evenodd" d="M12 17.75C11.5858 17.75 11.25 17.4142 11.25 17L11.25 11C11.25 10.5858 11.5858 10.25 12 10.25C12.4142 10.25 12.75 10.5858 12.75 11L12.75 17C12.75 17.4142 12.4142 17.75 12 17.75Z" fill="#242426"/>
<path fill-rule="evenodd" clip-rule="evenodd" d="M15.5303 14.5303C15.2374 14.8232 14.7626 14.8232 14.4697 14.5303L12 12.0607L9.53033 14.5303C9.23744 14.8232 8.76256 14.8232 8.46967 14.5303C8.17678 14.2374 8.17678 13.7626 8.46967 13.4697L11.4697 10.4697C11.7626 10.1768 12.2374 10.1768 12.5303 10.4697L15.5303 13.4697C15.8232 13.7626 15.8232 14.2374 15.5303 14.5303Z" fill="#242426"/>
</svg>
