<svg width="24" height="24" viewBox="0 0 24 24" fill="none" xmlns="http://www.w3.org/2000/svg">
<path fill-rule="evenodd" clip-rule="evenodd" d="M10.372 5.25H20.25C20.6642 5.25 21 5.58579 21 6C21 6.41421 20.6642 6.75 20.25 6.75H10.372C10.0631 7.62389 9.22966 8.25 8.25 8.25C7.27034 8.25 6.43691 7.62389 6.12803 6.75H3.75C3.33579 6.75 3 6.41421 3 6C3 5.58579 3.33579 5.25 3.75 5.25H6.12803C6.43691 4.37611 7.27034 3.75 8.25 3.75C9.22966 3.75 10.0631 4.37611 10.372 5.25Z" fill="#242426"/>
<path fill-rule="evenodd" clip-rule="evenodd" d="M17.872 11.25H20.25C20.6642 11.25 21 11.5858 21 12C21 12.4142 20.6642 12.75 20.25 12.75H17.872C17.5631 13.6239 16.7297 14.25 15.75 14.25C14.7703 14.25 13.9369 13.6239 13.628 12.75H3.75C3.33579 12.75 3 12.4142 3 12C3 11.5858 3.33579 11.25 3.75 11.25H13.628C13.9369 10.3761 14.7703 9.75 15.75 9.75C16.7297 9.75 17.5631 10.3761 17.872 11.25Z" fill="#242426"/>
<path fill-rule="evenodd" clip-rule="evenodd" d="M10.372 17.25H20.25C20.6642 17.25 21 17.5858 21 18C21 18.4142 20.6642 18.75 20.25 18.75H10.372C10.0631 19.6239 9.22966 20.25 8.25 20.25C7.27034 20.25 6.43691 19.6239 6.12803 18.75H3.75C3.33579 18.75 3 18.4142 3 18C3 17.5858 3.33579 17.25 3.75 17.25H6.12803C6.43691 16.3761 7.27034 15.75 8.25 15.75C9.22966 15.75 10.0631 16.3761 10.372 17.25Z" fill="#242426"/>
</svg>
