<svg width="24" height="24" viewBox="0 0 24 24" fill="none" xmlns="http://www.w3.org/2000/svg">
<g clip-path="url(#clip0_1749_13165)">
<path fill-rule="evenodd" clip-rule="evenodd" d="M3 4.5C3 3.67157 3.67157 3 4.5 3H19.5C20.3284 3 21 3.67157 21 4.5V19.5C21 20.3284 20.3284 21 19.5 21H4.5C3.67157 21 3 20.3284 3 19.5V4.5ZM19.5 4.5H4.5V19.5H19.5V4.5Z" fill="#242426"/>
<path fill-rule="evenodd" clip-rule="evenodd" d="M14.6893 10.4999C14.9706 10.2186 15.3522 10.0605 15.75 10.0605C16.1478 10.0605 16.5294 10.2186 16.8107 10.4999L16.2803 11.0302L16.8107 10.4999L20.7803 14.4695C21.0732 14.7624 21.0732 15.2373 20.7803 15.5302C20.4874 15.8231 20.0125 15.8231 19.7197 15.5302L15.75 11.5605L15.2197 11.0302L15.75 11.5605L11.5607 15.7499C11.2794 16.0312 10.8978 16.1892 10.5 16.1892C10.1022 16.1892 9.72064 16.0312 9.43934 15.7499L7.5 13.8105L4.28033 17.0302C3.98744 17.3231 3.51256 17.3231 3.21967 17.0302C2.92678 16.7373 2.92678 16.2625 3.21967 15.9696L6.43934 12.7499L6.96967 13.2802L6.43934 12.7499C6.72064 12.4686 7.10217 12.3105 7.5 12.3105C7.89782 12.3105 8.27935 12.4686 8.56066 12.7499L8.06821 13.2423L8.56066 12.7499L10.5 14.6892L14.6893 10.4999L15.0774 10.8879L14.6893 10.4999Z" fill="#242426"/>
<path d="M9.375 9.75C9.99632 9.75 10.5 9.24632 10.5 8.625C10.5 8.00368 9.99632 7.5 9.375 7.5C8.75368 7.5 8.25 8.00368 8.25 8.625C8.25 9.24632 8.75368 9.75 9.375 9.75Z" fill="#242426"/>
</g>
<defs>
<clipPath id="clip0_1749_13165">
<rect width="24" height="24" fill="white"/>
</clipPath>
</defs>
</svg>
