<svg width="24" height="24" viewBox="0 0 24 24" fill="none" xmlns="http://www.w3.org/2000/svg">
<g clip-path="url(#clip0_748_54964)">
<path d="M12 6.56808C14.6345 6.56808 16.7727 8.76835 16.7727 11.4794C16.7727 11.9804 16.6773 12.4617 16.5436 12.9135L19.4645 15.9192C20.7914 14.7111 21.8414 13.1984 22.5 11.4696C20.8486 7.16726 16.7727 4.11241 12 4.11241C10.7877 4.11241 9.62318 4.30887 8.52545 4.67231L10.5968 6.80382C11.0455 6.6663 11.5132 6.56808 12 6.56808ZM3.13227 3.28731C2.76 3.6704 2.76 4.28922 3.13227 4.67231L5.01273 6.60737C3.46636 7.87449 2.235 9.54434 1.5 11.4794C3.15136 15.7915 7.22727 18.8464 12 18.8464C13.4509 18.8464 14.835 18.5517 16.1141 18.0409L18.7105 20.7127C19.0827 21.0958 19.6841 21.0958 20.0564 20.7127C20.4286 20.3296 20.4286 19.7108 20.0564 19.3277L4.48773 3.28731C4.11545 2.90423 3.50455 2.90423 3.13227 3.28731ZM12 16.3907C9.36545 16.3907 7.22727 14.1905 7.22727 11.4794C7.22727 10.7231 7.39909 10.006 7.695 9.37735L9.19364 10.9195C9.165 11.0963 9.13636 11.2829 9.13636 11.4794C9.13636 13.11 10.4155 14.4262 12 14.4262C12.1909 14.4262 12.3627 14.3967 12.5441 14.3574L14.0427 15.8996C13.4223 16.2139 12.735 16.3907 12 16.3907ZM14.835 11.1553C14.6918 9.78008 13.6418 8.70941 12.315 8.56207L14.835 11.1553Z" fill="#242426"/>
</g>
<defs>
<clipPath id="clip0_748_54964">
<rect width="24" height="24" fill="white"/>
</clipPath>
</defs>
</svg>
