<svg width="24" height="24" viewBox="0 0 24 24" fill="none" xmlns="http://www.w3.org/2000/svg">
<g clip-path="url(#clip0_2953_80539)">
<circle cx="12" cy="12" r="1" fill="#242426"/>
<circle cx="12" cy="12" r="1" fill="#242426"/>
<path fill-rule="evenodd" clip-rule="evenodd" d="M11.8994 4.0165L9.02538 6.89049L8.06738 5.9325L11.8994 2.1005L15.7314 5.9325L14.7734 6.89049L11.8994 4.0165Z" fill="#242426"/>
<path fill-rule="evenodd" clip-rule="evenodd" d="M2 12L5.83199 8.16801L6.78999 9.126L3.916 12L6.78999 14.874L5.83199 15.832L2 12Z" fill="#242426"/>
<path fill-rule="evenodd" clip-rule="evenodd" d="M8.06738 18.0675L9.02538 17.1095L11.8994 19.9835L14.7734 17.1095L15.7314 18.0675L11.8994 21.8995L8.06738 18.0675Z" fill="#242426"/>
<path fill-rule="evenodd" clip-rule="evenodd" d="M17.9672 8.16801L21.7992 12L17.9672 15.832L17.0093 14.874L19.8832 12L17.0093 9.126L17.9672 8.16801Z" fill="#242426"/>
</g>
<defs>
<clipPath id="clip0_2953_80539">
<rect width="24" height="24" fill="white"/>
</clipPath>
</defs>
</svg>
