<svg width="24" height="24" viewBox="0 0 24 24" fill="none" xmlns="http://www.w3.org/2000/svg">
<circle cx="12" cy="12" r="8.5" stroke="#242426"/>
<path d="M10.9109 14.1771H12.5991V14.0218C12.608 13.1312 12.9198 12.7156 13.6236 12.2817C14.4566 11.7748 15 11.1034 15 10.0302C15 8.43168 13.7439 7.5 11.9755 7.5C10.3586 7.5 9.04009 8.36775 9 10.1946H10.8174C10.8441 9.45014 11.3831 9.05281 11.9666 9.05281C12.5679 9.05281 13.0535 9.46384 13.0535 10.0987C13.0535 10.697 12.6303 11.0943 12.0824 11.4505C11.3341 11.9346 10.9154 12.4233 10.9109 14.0218V14.1771ZM11.7884 17.1C12.3586 17.1 12.853 16.6113 12.8575 16.0039C12.853 15.4056 12.3586 14.9169 11.7884 14.9169C11.2004 14.9169 10.7149 15.4056 10.7194 16.0039C10.7149 16.6113 11.2004 17.1 11.7884 17.1Z" fill="#242426"/>
</svg>
