<svg width="16" height="9" viewBox="0 0 16 9" fill="none" xmlns="http://www.w3.org/2000/svg">
<path fill-rule="evenodd" clip-rule="evenodd" d="M15.3093 8.32367C15.0164 8.61657 14.5415 8.61657 14.2487 8.32367L7.53114 1.60616C7.23824 1.31327 7.23824 0.838392 7.53114 0.545499C7.82403 0.252606 8.2989 0.252606 8.5918 0.545499L15.3093 7.26301C15.6022 7.55591 15.6022 8.03078 15.3093 8.32367Z" fill="current"/>
<path fill-rule="evenodd" clip-rule="evenodd" d="M8.5918 0.545476C8.88469 0.838369 8.88469 1.31324 8.5918 1.60614L1.84378 8.32371C1.55089 8.6166 1.07602 8.6166 0.783122 8.32371C0.490229 8.03081 0.490229 7.55594 0.783122 7.26305L7.53114 0.545475C7.82403 0.252582 8.2989 0.252582 8.5918 0.545476Z" fill="current"/>
</svg>
