<svg width="24" height="24" viewBox="0 0 24 24" fill="none" xmlns="http://www.w3.org/2000/svg">
<g clip-path="url(#clip0_2873_0)">
<path fill-rule="evenodd" clip-rule="evenodd" d="M4.25 19C4.25 18.5858 4.58579 18.25 5 18.25H19C19.4142 18.25 19.75 18.5858 19.75 19C19.75 19.4142 19.4142 19.75 19 19.75H5C4.58579 19.75 4.25 19.4142 4.25 19Z" fill="#242426"/>
<path d="M11.6464 4.35355C11.8417 4.15829 12.1583 4.15829 12.3536 4.35355L17.1464 9.14645C17.4614 9.46143 17.2383 10 16.7929 10H7.20711C6.76165 10 6.53857 9.46143 6.85355 9.14645L11.6464 4.35355Z" fill="#242426"/>
<path d="M9 9H15V15C15 15.5523 14.5523 16 14 16H10C9.44772 16 9 15.5523 9 15V9Z" fill="#242426"/>
</g>
<defs>
<clipPath id="clip0_2873_0">
<rect width="24" height="24" fill="white"/>
</clipPath>
</defs>
</svg>
