<svg width="24" height="24" viewBox="0 0 24 24" fill="none" xmlns="http://www.w3.org/2000/svg">
<g clip-path="url(#clip0_748_54961)">
<path d="M12 5.25C7.22727 5.25 3.15136 8.049 1.5 12C3.15136 15.951 7.22727 18.75 12 18.75C16.7727 18.75 20.8486 15.951 22.5 12C20.8486 8.049 16.7727 5.25 12 5.25ZM12 16.5C9.36545 16.5 7.22727 14.484 7.22727 12C7.22727 9.516 9.36545 7.5 12 7.5C14.6345 7.5 16.7727 9.516 16.7727 12C16.7727 14.484 14.6345 16.5 12 16.5ZM12 9.3C10.4155 9.3 9.13636 10.506 9.13636 12C9.13636 13.494 10.4155 14.7 12 14.7C13.5845 14.7 14.8636 13.494 14.8636 12C14.8636 10.506 13.5845 9.3 12 9.3Z" fill="#242426"/>
</g>
<defs>
<clipPath id="clip0_748_54961">
<rect width="24" height="24" fill="white"/>
</clipPath>
</defs>
</svg>
