<svg width="182" height="24" viewBox="0 0 182 24" fill="none" xmlns="http://www.w3.org/2000/svg">
<g clip-path="url(#clip0_12337_14070)">
<path fill-rule="evenodd" clip-rule="evenodd" d="M35.3504 1.2642C35.44 1.00201 35.6869 0.599976 36.362 0.599976H36.4232H44.5665C45.4187 0.630565 45.5519 1.31883 45.5694 1.45648C45.1171 13.6332 35.0904 23.4 22.7847 23.4C10.479 23.4 0.421696 13.6026 0 1.39748C0.050254 1.16369 0.253455 0.617455 1.04441 0.617455C1.12525 0.617455 1.1908 0.6109 1.24324 0.599976H9.02168C9.06975 0.60653 9.12656 0.6109 9.19429 0.6109C9.93717 0.6109 10.1622 1.09815 10.2278 1.34941C10.6167 7.93924 16.0725 13.1809 22.7869 13.1809C29.5013 13.1809 35.003 7.89335 35.3504 1.2642Z" fill="current"/>
</g>
<path d="M51.3457 6.21234H57.6993V22.227H62.392V6.21234H68.7456V1.69275H51.3457V6.21234Z" fill="current"/>
<path d="M75.6439 1.69275H70.9512V22.227H75.6439V1.69275Z" fill="current"/>
<path d="M102.796 14.0713H111.585V9.61528H102.796V6.21234H112.316V1.69275H98.1035V22.227H112.464V17.711H102.796V14.0713Z" fill="current"/>
<path d="M128.574 1.69275H120.624V22.227H125.316V15.7745H128.574C132.624 15.7745 135.762 12.6366 135.762 8.73539C135.762 4.8342 132.624 1.69275 128.574 1.69275ZM129.963 10.8909C129.327 11.2903 128.302 11.3609 127.808 11.3715H125.316V6.09219H128.062C128.588 6.12046 129.387 6.2194 129.928 6.5445C130.613 7.01095 131.069 7.80603 131.069 8.73539C131.069 9.66475 130.631 10.4245 129.967 10.8945" fill="current"/>
<path d="M142.497 1.69275H137.804V22.227H142.497V1.69275Z" fill="current"/>
<path d="M154.901 6.57312C156.466 6.57312 157.965 7.24098 159.014 8.4071L162.604 5.18437C160.643 3.00055 157.837 1.74609 154.901 1.74609C149.194 1.74609 144.554 6.38936 144.554 12.0927C144.554 17.7961 149.197 22.4429 154.901 22.4429C157.809 22.4429 160.601 21.2097 162.558 19.0541L158.989 15.8102C157.943 16.9586 156.456 17.6194 154.901 17.6194C151.855 17.6194 149.378 15.1423 149.378 12.0963C149.378 9.05023 151.855 6.57312 154.901 6.57312Z" fill="current"/>
<path d="M174.586 11.1312L181.569 1.69275H176L170.194 9.54461C169.826 9.4916 169.3 9.4492 168.922 9.428V1.69628H164.229V22.2306H168.922V14.3151C169.855 14.3504 170.735 14.4741 171.537 14.9052C174.152 16.3081 175.929 19.0361 175.933 22.2235H180.77C180.77 17.4636 178.36 13.3469 174.593 11.1348" fill="current"/>
<path d="M95.3468 8.76702C95.3468 4.86582 92.2089 1.72791 88.1593 1.72791H79.1343V22.2622H83.827V15.8097V15.6188C85.8554 15.6648 87.654 15.7602 88.9897 17.0995C90.4492 18.5589 90.9191 20.2939 91.0994 22.2657H95.5518C95.5518 19.361 94.0995 15.9899 92.2867 14.3502C94.2055 13.1806 95.3433 11.0533 95.3433 8.77409M89.4915 10.9367C88.8802 11.3183 87.9155 11.3996 87.4066 11.4138H83.8235V6.13442H87.5657C88.0462 6.15915 88.7742 6.24043 89.3184 6.50546H89.3254C89.3749 6.53373 89.4208 6.55846 89.4668 6.58673C90.17 7.05318 90.6506 7.84473 90.6506 8.77055C90.6506 9.69638 90.1841 10.4632 89.4951 10.9332" fill="current"/>
<defs>
<clipPath id="clip0_12337_14070">
<rect width="45.5694" height="22.8" fill="white" transform="translate(0 0.599976)"/>
</clipPath>
</defs>
</svg>