<svg width="303" height="38" viewBox="0 0 303 38" fill="none" xmlns="http://www.w3.org/2000/svg">
<g clip-path="url(#clip0_12311_164353)">
<path fill-rule="evenodd" clip-rule="evenodd" d="M58.9173 1.10704C59.0666 0.670053 59.4781 0 60.6034 0H60.7053H74.2775C75.6978 0.0509823 75.9199 1.19808 75.949 1.4275C75.1952 21.7221 58.484 38 37.9745 38C17.4651 38 0.702827 21.6711 0 1.32918C0.0837566 0.93953 0.422425 0.0291327 1.74068 0.0291327C1.87542 0.0291327 1.98467 0.018208 2.07207 0H15.0361C15.1162 0.0109248 15.2109 0.018208 15.3238 0.018208C16.562 0.018208 16.937 0.830283 17.0463 1.24907C17.6945 12.2321 26.7875 20.9683 37.9782 20.9683C49.1688 20.9683 58.3383 12.1556 58.9173 1.10704Z" fill="url(#paint0_linear_12311_164353)"/>
</g>
<path d="M85.5762 9.35394H96.1655V36.0451H103.987V9.35394H114.576V1.82129H85.5762V9.35394Z" fill="#040000"/>
<path d="M126.073 1.82129H118.252V36.0451H126.073V1.82129Z" fill="#040000"/>
<path d="M171.327 22.4522H185.974V15.0255H171.327V9.35394H187.193V1.82129H163.506V36.0451H187.441V28.5183H171.327V22.4522Z" fill="#040000"/>
<path d="M214.29 1.82129H201.039V36.0451H208.86V25.2909H214.29C221.04 25.2909 226.27 20.061 226.27 13.559C226.27 7.05704 221.04 1.82129 214.29 1.82129ZM216.605 17.1516C215.545 17.8171 213.837 17.9349 213.012 17.9526H208.86V9.1537H213.436C214.314 9.20081 215.645 9.36572 216.546 9.90755C217.689 10.685 218.448 12.0101 218.448 13.559C218.448 15.108 217.718 16.3742 216.611 17.1575" fill="#040000"/>
<path d="M237.495 1.82129H229.674V36.0451H237.495V1.82129Z" fill="#040000"/>
<path d="M258.168 9.95519C260.777 9.95519 263.274 11.0683 265.024 13.0118L271.007 7.64062C267.739 4.00092 263.062 1.91016 258.168 1.91016C248.657 1.91016 240.924 9.64894 240.924 19.1546C240.924 28.6602 248.663 36.4049 258.168 36.4049C263.015 36.4049 267.668 34.3494 270.931 30.7568L264.982 25.3503C263.239 27.2644 260.76 28.3657 258.168 28.3657C253.092 28.3657 248.963 24.2372 248.963 19.1605C248.963 14.0837 253.092 9.95519 258.168 9.95519Z" fill="#040000"/>
<path d="M290.977 17.5521L302.615 1.82129H293.333L283.656 14.9077C283.044 14.8194 282.166 14.7487 281.536 14.7134V1.82718H273.715V36.051H281.536V22.8585C283.091 22.9174 284.557 23.1236 285.894 23.8421C290.253 26.1802 293.215 30.7269 293.221 36.0392H301.284C301.284 28.1061 297.267 21.2448 290.989 17.558" fill="#040000"/>
<path d="M158.912 13.6117C158.912 7.10974 153.682 1.87988 146.932 1.87988H131.891V36.1037H139.712V25.3495V25.0314C143.092 25.108 146.09 25.267 148.316 27.4991C150.749 29.9315 151.532 32.8232 151.832 36.1096H159.253C159.253 31.2684 156.833 25.6498 153.811 22.9171C157.009 20.9677 158.906 17.4222 158.906 13.6235M149.153 17.2279C148.134 17.8639 146.526 17.9994 145.678 18.023H139.706V9.22407H145.943C146.744 9.2653 147.957 9.40076 148.864 9.84247H148.876C148.958 9.88958 149.035 9.93081 149.111 9.97792C150.283 10.7553 151.084 12.0746 151.084 13.6176C151.084 15.1607 150.307 16.4387 149.159 17.222" fill="#040000"/>
<defs>
<linearGradient id="paint0_linear_12311_164353" x1="0.803626" y1="18.3705" x2="76.7526" y2="18.3705" gradientUnits="userSpaceOnUse">
<stop stop-color="#29C9FF"/>
<stop offset="0.07" stop-color="#32B9FC"/>
<stop offset="0.37" stop-color="#5977F2"/>
<stop offset="0.59" stop-color="#714EEB"/>
<stop offset="0.71" stop-color="#7B3FE9"/>
<stop offset="1" stop-color="#D413E5"/>
</linearGradient>
<clipPath id="clip0_12311_164353">
<rect width="75.949" height="38" fill="white"/>
</clipPath>
</defs>
</svg>
