<svg width="24" height="24" viewBox="0 0 24 24" fill="none" xmlns="http://www.w3.org/2000/svg">
<path d="M7.5 21C8.60457 21 9.5 20.1046 9.5 19C9.5 17.8954 8.60457 17 7.5 17C6.39543 17 5.5 17.8954 5.5 19C5.5 20.1046 6.39543 21 7.5 21Z" stroke="current" stroke-width="1.5" stroke-linecap="round" stroke-linejoin="round"/>
<path d="M18.5 21C19.6046 21 20.5 20.1046 20.5 19C20.5 17.8954 19.6046 17 18.5 17C17.3954 17 16.5 17.8954 16.5 19C16.5 20.1046 17.3954 21 18.5 21Z" stroke="current" stroke-width="1.5" stroke-linecap="round" stroke-linejoin="round"/>
<path d="M18.5 17H7.5L4.5 3H2.5" stroke="current" stroke-width="1.5" stroke-linecap="round" stroke-linejoin="round"/>
<path d="M5.5 5L21.5 6L20.5 13H7.5" stroke="current" stroke-width="1.5" stroke-linecap="round" stroke-linejoin="round"/>
</svg>
