<svg width="24" height="24" viewBox="0 0 24 24" fill="none" xmlns="http://www.w3.org/2000/svg">
<circle cx="12" cy="7" r="4.25" stroke="current" stroke-width="1.5"/>
<path d="M11.2 13.75H12.8C16.2816 13.75 19.25 16.9552 19.25 21.1C19.25 21.1688 19.2252 21.2155 19.2051 21.2381C19.1995 21.2444 19.1953 21.248 19.1926 21.25H4.80742C4.8047 21.248 4.80048 21.2444 4.79487 21.2381C4.77475 21.2155 4.75 21.1688 4.75 21.1C4.75 16.9552 7.71837 13.75 11.2 13.75ZM19.189 21.252C19.189 21.252 19.1895 21.2516 19.1908 21.2512C19.1896 21.2519 19.189 21.2521 19.189 21.252ZM4.81104 21.252C4.81103 21.2521 4.81042 21.2519 4.80924 21.2512C4.81045 21.2516 4.81104 21.252 4.81104 21.252Z" stroke="current" stroke-width="1.5"/>
</svg>
