<svg width="24" height="24" viewBox="0 0 24 24" fill="none" xmlns="http://www.w3.org/2000/svg">
<g clip-path="url(#clip0_7304_136590)">
<path d="M17 21C19.2091 21 21 19.2091 21 17C21 14.7909 19.2091 13 17 13C14.7909 13 13 14.7909 13 17C13 19.2091 14.7909 21 17 21Z" stroke="current" stroke-width="1.5" stroke-linecap="round" stroke-linejoin="round"/>
<path d="M17 13V17H21" stroke="current" stroke-width="1.5" stroke-linecap="round" stroke-linejoin="round"/>
<path d="M12 3V7C12 7.26522 12.1054 7.51957 12.2929 7.70711C12.4804 7.89464 12.7348 8 13 8H17" stroke="current" stroke-width="1.5" stroke-linecap="round" stroke-linejoin="round"/>
<path d="M11.5 21H5C4.46957 21 3.96086 20.7893 3.58579 20.4142C3.21071 20.0391 3 19.5304 3 19V5C3 4.46957 3.21071 3.96086 3.58579 3.58579C3.96086 3.21071 4.46957 3 5 3H12L17 8V10M17 13V17" stroke="current" stroke-width="1.5" stroke-linecap="round" stroke-linejoin="round"/>
</g>
<defs>
<clipPath id="clip0_7304_136590">
<rect width="24" height="24" fill="white"/>
</clipPath>
</defs>
</svg>
